<mxfile host="65bd71144e">
    <diagram id="O7W1chm-pStXMENEJMXE" name="Page-1">
        <mxGraphModel dx="1355" dy="1634" grid="0" gridSize="10" guides="1" tooltips="1" connect="1" arrows="1" fold="1" page="0" pageScale="1" pageWidth="850" pageHeight="1400" math="0" shadow="0">
            <root>
                <mxCell id="0"/>
                <mxCell id="1" parent="0"/>
                <mxCell id="8" value="" style="group" vertex="1" connectable="0" parent="1">
                    <mxGeometry x="520" y="250" width="120" height="460" as="geometry"/>
                </mxCell>
                <mxCell id="7" value="" style="rounded=1;whiteSpace=wrap;html=1;fillColor=#DAE8FC;strokeColor=#6c8ebf;strokeWidth=3;" vertex="1" parent="8">
                    <mxGeometry width="120" height="460" as="geometry"/>
                </mxCell>
                <mxCell id="2" value="" style="ellipse;whiteSpace=wrap;html=1;aspect=fixed;strokeWidth=5;fillColor=#dae8fc;strokeColor=#6c8ebf;" vertex="1" parent="8">
                    <mxGeometry x="20" y="21.5" width="80" height="80" as="geometry"/>
                </mxCell>
                <mxCell id="3" value="" style="ellipse;whiteSpace=wrap;html=1;aspect=fixed;strokeWidth=5;fillColor=#dae8fc;strokeColor=#6c8ebf;" vertex="1" parent="8">
                    <mxGeometry x="20" y="134.5" width="80" height="80" as="geometry"/>
                </mxCell>
                <mxCell id="4" value="" style="ellipse;whiteSpace=wrap;html=1;aspect=fixed;strokeWidth=5;fillColor=#dae8fc;strokeColor=#6c8ebf;" vertex="1" parent="8">
                    <mxGeometry x="20" y="244.5" width="80" height="80" as="geometry"/>
                </mxCell>
                <mxCell id="5" value="" style="ellipse;whiteSpace=wrap;html=1;aspect=fixed;strokeWidth=5;fillColor=#dae8fc;strokeColor=#6c8ebf;" vertex="1" parent="8">
                    <mxGeometry x="20" y="350" width="80" height="80" as="geometry"/>
                </mxCell>
                <mxCell id="9" value="" style="group;" vertex="1" connectable="0" parent="1">
                    <mxGeometry x="800" y="190" width="120" height="590" as="geometry"/>
                </mxCell>
                <mxCell id="10" value="" style="rounded=1;whiteSpace=wrap;html=1;fillColor=#ffe6cc;strokeColor=#d79b00;strokeWidth=3;" vertex="1" parent="9">
                    <mxGeometry width="120" height="590" as="geometry"/>
                </mxCell>
                <mxCell id="11" value="" style="ellipse;whiteSpace=wrap;html=1;aspect=fixed;strokeWidth=5;fillColor=#ffe6cc;strokeColor=#d79b00;" vertex="1" parent="9">
                    <mxGeometry x="20" y="21.5" width="80" height="80" as="geometry"/>
                </mxCell>
                <mxCell id="12" value="" style="ellipse;whiteSpace=wrap;html=1;aspect=fixed;strokeWidth=5;fillColor=#ffe6cc;strokeColor=#d79b00;" vertex="1" parent="9">
                    <mxGeometry x="20" y="134.5" width="80" height="80" as="geometry"/>
                </mxCell>
                <mxCell id="13" value="" style="ellipse;whiteSpace=wrap;html=1;aspect=fixed;strokeWidth=5;fillColor=#ffe6cc;strokeColor=#d79b00;" vertex="1" parent="9">
                    <mxGeometry x="20" y="370" width="80" height="80" as="geometry"/>
                </mxCell>
                <mxCell id="14" value="" style="ellipse;whiteSpace=wrap;html=1;aspect=fixed;strokeWidth=5;fillColor=#ffe6cc;strokeColor=#d79b00;" vertex="1" parent="9">
                    <mxGeometry x="20" y="475.5" width="80" height="80" as="geometry"/>
                </mxCell>
                <mxCell id="18" value="" style="group" vertex="1" connectable="0" parent="9">
                    <mxGeometry x="53" y="250" width="14" height="79" as="geometry"/>
                </mxCell>
                <mxCell id="15" value="" style="ellipse;whiteSpace=wrap;html=1;aspect=fixed;strokeWidth=5;fillColor=light-dark(#d79b00, #36210a);strokeColor=#d79b00;fillStyle=auto;" vertex="1" parent="18">
                    <mxGeometry width="14" height="14" as="geometry"/>
                </mxCell>
                <mxCell id="16" value="" style="ellipse;whiteSpace=wrap;html=1;aspect=fixed;strokeWidth=5;fillColor=light-dark(#d79b00, #36210a);strokeColor=#d79b00;fillStyle=auto;" vertex="1" parent="18">
                    <mxGeometry y="33" width="14" height="14" as="geometry"/>
                </mxCell>
                <mxCell id="17" value="" style="ellipse;whiteSpace=wrap;html=1;aspect=fixed;strokeWidth=5;fillColor=light-dark(#d79b00, #36210a);strokeColor=#d79b00;fillStyle=auto;" vertex="1" parent="18">
                    <mxGeometry y="65" width="14" height="14" as="geometry"/>
                </mxCell>
                <mxCell id="19" value="" style="group;" vertex="1" connectable="0" parent="1">
                    <mxGeometry x="1070" y="190" width="120" height="590" as="geometry"/>
                </mxCell>
                <mxCell id="20" value="" style="rounded=1;whiteSpace=wrap;html=1;fillColor=#ffe6cc;strokeColor=#d79b00;strokeWidth=3;" vertex="1" parent="19">
                    <mxGeometry width="120" height="590" as="geometry"/>
                </mxCell>
                <mxCell id="21" value="" style="ellipse;whiteSpace=wrap;html=1;aspect=fixed;strokeWidth=5;fillColor=#ffe6cc;strokeColor=#d79b00;" vertex="1" parent="19">
                    <mxGeometry x="20" y="21.5" width="80" height="80" as="geometry"/>
                </mxCell>
                <mxCell id="22" value="" style="ellipse;whiteSpace=wrap;html=1;aspect=fixed;strokeWidth=5;fillColor=#ffe6cc;strokeColor=#d79b00;" vertex="1" parent="19">
                    <mxGeometry x="20" y="134.5" width="80" height="80" as="geometry"/>
                </mxCell>
                <mxCell id="23" value="" style="ellipse;whiteSpace=wrap;html=1;aspect=fixed;strokeWidth=5;fillColor=#ffe6cc;strokeColor=#d79b00;" vertex="1" parent="19">
                    <mxGeometry x="20" y="370" width="80" height="80" as="geometry"/>
                </mxCell>
                <mxCell id="24" value="" style="ellipse;whiteSpace=wrap;html=1;aspect=fixed;strokeWidth=5;fillColor=#ffe6cc;strokeColor=#d79b00;" vertex="1" parent="19">
                    <mxGeometry x="20" y="475.5" width="80" height="80" as="geometry"/>
                </mxCell>
                <mxCell id="25" value="" style="group" vertex="1" connectable="0" parent="19">
                    <mxGeometry x="53" y="250" width="14" height="79" as="geometry"/>
                </mxCell>
                <mxCell id="26" value="" style="ellipse;whiteSpace=wrap;html=1;aspect=fixed;strokeWidth=5;fillColor=light-dark(#d79b00, #36210a);strokeColor=#d79b00;fillStyle=auto;" vertex="1" parent="25">
                    <mxGeometry width="14" height="14" as="geometry"/>
                </mxCell>
                <mxCell id="27" value="" style="ellipse;whiteSpace=wrap;html=1;aspect=fixed;strokeWidth=5;fillColor=light-dark(#d79b00, #36210a);strokeColor=#d79b00;fillStyle=auto;" vertex="1" parent="25">
                    <mxGeometry y="33" width="14" height="14" as="geometry"/>
                </mxCell>
                <mxCell id="28" value="" style="ellipse;whiteSpace=wrap;html=1;aspect=fixed;strokeWidth=5;fillColor=light-dark(#d79b00, #36210a);strokeColor=#d79b00;fillStyle=auto;" vertex="1" parent="25">
                    <mxGeometry y="65" width="14" height="14" as="geometry"/>
                </mxCell>
                <mxCell id="29" value="" style="group" vertex="1" connectable="0" parent="1">
                    <mxGeometry x="1340" y="360" width="120" height="460" as="geometry"/>
                </mxCell>
                <mxCell id="30" value="" style="rounded=1;whiteSpace=wrap;html=1;fillColor=#d5e8d4;strokeColor=#82b366;strokeWidth=3;" vertex="1" parent="29">
                    <mxGeometry y="-70" width="120" height="370" as="geometry"/>
                </mxCell>
                <mxCell id="31" value="" style="ellipse;whiteSpace=wrap;html=1;aspect=fixed;strokeWidth=5;fillColor=#d5e8d4;strokeColor=#82b366;" vertex="1" parent="29">
                    <mxGeometry x="20" y="-30" width="80" height="80" as="geometry"/>
                </mxCell>
                <mxCell id="32" value="" style="ellipse;whiteSpace=wrap;html=1;aspect=fixed;strokeWidth=5;fillColor=#d5e8d4;strokeColor=#82b366;" vertex="1" parent="29">
                    <mxGeometry x="20" y="170" width="80" height="80" as="geometry"/>
                </mxCell>
                <mxCell id="35" style="edgeStyle=none;html=1;strokeWidth=4;endArrow=block;endFill=1;endSize=14;fillColor=#ffe6cc;strokeColor=#d79b00;" edge="1" parent="1" source="2" target="11">
                    <mxGeometry relative="1" as="geometry"/>
                </mxCell>
                <mxCell id="36" style="edgeStyle=none;html=1;strokeWidth=4;endArrow=block;endFill=1;endSize=14;fillColor=#ffe6cc;strokeColor=#d79b00;" edge="1" parent="1" source="2" target="12">
                    <mxGeometry relative="1" as="geometry">
                        <mxPoint x="548" y="315" as="sourcePoint"/>
                        <mxPoint x="831" y="268" as="targetPoint"/>
                    </mxGeometry>
                </mxCell>
                <mxCell id="37" style="edgeStyle=none;html=1;strokeWidth=4;endArrow=block;endFill=1;endSize=14;fillColor=#ffe6cc;strokeColor=#d79b00;" edge="1" parent="1" source="2" target="13">
                    <mxGeometry relative="1" as="geometry">
                        <mxPoint x="549" y="327" as="sourcePoint"/>
                        <mxPoint x="830" y="369" as="targetPoint"/>
                    </mxGeometry>
                </mxCell>
                <mxCell id="38" style="edgeStyle=none;html=1;strokeWidth=4;endArrow=block;endFill=1;endSize=14;fillColor=#ffe6cc;strokeColor=#d79b00;" edge="1" parent="1" source="2" target="14">
                    <mxGeometry relative="1" as="geometry">
                        <mxPoint x="540" y="346" as="sourcePoint"/>
                        <mxPoint x="839" y="585" as="targetPoint"/>
                    </mxGeometry>
                </mxCell>
                <mxCell id="39" style="edgeStyle=none;html=1;strokeWidth=4;endArrow=block;endFill=1;endSize=14;fillColor=#ffe6cc;strokeColor=#d79b00;" edge="1" parent="1" source="3" target="11">
                    <mxGeometry relative="1" as="geometry">
                        <mxPoint x="536" y="351" as="sourcePoint"/>
                        <mxPoint x="843" y="686" as="targetPoint"/>
                    </mxGeometry>
                </mxCell>
                <mxCell id="40" style="edgeStyle=none;html=1;strokeWidth=4;endArrow=block;endFill=1;endSize=14;fillColor=#ffe6cc;strokeColor=#d79b00;" edge="1" parent="1" source="3" target="12">
                    <mxGeometry relative="1" as="geometry">
                        <mxPoint x="545" y="417" as="sourcePoint"/>
                        <mxPoint x="834" y="279" as="targetPoint"/>
                    </mxGeometry>
                </mxCell>
                <mxCell id="41" style="edgeStyle=none;html=1;strokeWidth=4;endArrow=block;endFill=1;endSize=14;fillColor=#ffe6cc;strokeColor=#d79b00;" edge="1" parent="1" source="3" target="13">
                    <mxGeometry relative="1" as="geometry">
                        <mxPoint x="548" y="428" as="sourcePoint"/>
                        <mxPoint x="831" y="381" as="targetPoint"/>
                    </mxGeometry>
                </mxCell>
                <mxCell id="42" style="edgeStyle=none;html=1;strokeWidth=4;endArrow=block;endFill=1;endSize=14;fillColor=#ffe6cc;strokeColor=#d79b00;" edge="1" parent="1" source="3" target="14">
                    <mxGeometry relative="1" as="geometry">
                        <mxPoint x="545" y="452" as="sourcePoint"/>
                        <mxPoint x="834" y="593" as="targetPoint"/>
                    </mxGeometry>
                </mxCell>
                <mxCell id="43" style="edgeStyle=none;html=1;strokeWidth=4;endArrow=block;endFill=1;endSize=14;fillColor=#ffe6cc;strokeColor=#d79b00;" edge="1" parent="1" source="4" target="11">
                    <mxGeometry relative="1" as="geometry">
                        <mxPoint x="541" y="459" as="sourcePoint"/>
                        <mxPoint x="838" y="691" as="targetPoint"/>
                    </mxGeometry>
                </mxCell>
                <mxCell id="44" style="edgeStyle=none;html=1;strokeWidth=4;endArrow=block;endFill=1;endSize=14;fillColor=#ffe6cc;strokeColor=#d79b00;" edge="1" parent="1" source="4" target="12">
                    <mxGeometry relative="1" as="geometry">
                        <mxPoint x="540" y="520" as="sourcePoint"/>
                        <mxPoint x="839" y="286" as="targetPoint"/>
                    </mxGeometry>
                </mxCell>
                <mxCell id="45" style="edgeStyle=none;html=1;strokeWidth=4;endArrow=block;endFill=1;endSize=14;fillColor=#ffe6cc;strokeColor=#d79b00;" edge="1" parent="1" source="4" target="13">
                    <mxGeometry relative="1" as="geometry">
                        <mxPoint x="545" y="527" as="sourcePoint"/>
                        <mxPoint x="834" y="392" as="targetPoint"/>
                    </mxGeometry>
                </mxCell>
                <mxCell id="46" style="edgeStyle=none;html=1;strokeWidth=4;endArrow=block;endFill=1;endSize=14;fillColor=#ffe6cc;strokeColor=#d79b00;" edge="1" parent="1" source="4" target="14">
                    <mxGeometry relative="1" as="geometry">
                        <mxPoint x="548" y="552" as="sourcePoint"/>
                        <mxPoint x="831" y="603" as="targetPoint"/>
                    </mxGeometry>
                </mxCell>
                <mxCell id="47" style="edgeStyle=none;html=1;strokeWidth=4;endArrow=block;endFill=1;endSize=14;fillColor=#ffe6cc;strokeColor=#d79b00;" edge="1" parent="1" source="5" target="11">
                    <mxGeometry relative="1" as="geometry">
                        <mxPoint x="545" y="562" as="sourcePoint"/>
                        <mxPoint x="834" y="698" as="targetPoint"/>
                    </mxGeometry>
                </mxCell>
                <mxCell id="48" style="edgeStyle=none;html=1;strokeWidth=4;endArrow=block;endFill=1;endSize=14;fillColor=#ffe6cc;strokeColor=#d79b00;" edge="1" parent="1" source="5" target="12">
                    <mxGeometry relative="1" as="geometry">
                        <mxPoint x="555" y="572" as="sourcePoint"/>
                        <mxPoint x="842" y="290" as="targetPoint"/>
                    </mxGeometry>
                </mxCell>
                <mxCell id="49" style="edgeStyle=none;html=1;strokeWidth=4;endArrow=block;endFill=1;endSize=14;fillColor=#ffe6cc;strokeColor=#d79b00;" edge="1" parent="1" source="5" target="13">
                    <mxGeometry relative="1" as="geometry">
                        <mxPoint x="536" y="621" as="sourcePoint"/>
                        <mxPoint x="843" y="291" as="targetPoint"/>
                    </mxGeometry>
                </mxCell>
                <mxCell id="50" style="edgeStyle=none;html=1;strokeWidth=4;endArrow=block;endFill=1;endSize=14;fillColor=#ffe6cc;strokeColor=#d79b00;" edge="1" parent="1" source="5" target="14">
                    <mxGeometry relative="1" as="geometry">
                        <mxPoint x="549" y="646" as="sourcePoint"/>
                        <mxPoint x="830" y="614" as="targetPoint"/>
                    </mxGeometry>
                </mxCell>
                <mxCell id="51" style="edgeStyle=none;html=1;strokeWidth=4;endArrow=block;endFill=1;endSize=14;fillColor=#ffe6cc;strokeColor=#d79b00;" edge="1" parent="1" source="11" target="21">
                    <mxGeometry relative="1" as="geometry">
                        <mxPoint x="548" y="315" as="sourcePoint"/>
                        <mxPoint x="831" y="268" as="targetPoint"/>
                    </mxGeometry>
                </mxCell>
                <mxCell id="52" style="edgeStyle=none;html=1;strokeWidth=4;endArrow=block;endFill=1;endSize=14;fillColor=#ffe6cc;strokeColor=#d79b00;" edge="1" parent="1" source="11" target="22">
                    <mxGeometry relative="1" as="geometry">
                        <mxPoint x="910" y="262" as="sourcePoint"/>
                        <mxPoint x="1170" y="262" as="targetPoint"/>
                    </mxGeometry>
                </mxCell>
                <mxCell id="53" style="edgeStyle=none;html=1;strokeWidth=4;endArrow=block;endFill=1;endSize=14;fillColor=#ffe6cc;strokeColor=#d79b00;" edge="1" parent="1" source="11" target="23">
                    <mxGeometry relative="1" as="geometry">
                        <mxPoint x="908" y="274" as="sourcePoint"/>
                        <mxPoint x="1172" y="362" as="targetPoint"/>
                    </mxGeometry>
                </mxCell>
                <mxCell id="54" style="edgeStyle=none;html=1;strokeWidth=4;endArrow=block;endFill=1;endSize=14;fillColor=#ffe6cc;strokeColor=#d79b00;" edge="1" parent="1" source="11" target="24">
                    <mxGeometry relative="1" as="geometry">
                        <mxPoint x="898" y="290" as="sourcePoint"/>
                        <mxPoint x="1182" y="581" as="targetPoint"/>
                    </mxGeometry>
                </mxCell>
                <mxCell id="55" style="edgeStyle=none;html=1;strokeWidth=4;endArrow=block;endFill=1;endSize=14;fillColor=#ffe6cc;strokeColor=#d79b00;" edge="1" parent="1" source="12" target="21">
                    <mxGeometry relative="1" as="geometry">
                        <mxPoint x="894" y="294" as="sourcePoint"/>
                        <mxPoint x="1186" y="683" as="targetPoint"/>
                    </mxGeometry>
                </mxCell>
                <mxCell id="56" style="edgeStyle=none;html=1;strokeWidth=4;endArrow=block;endFill=1;endSize=14;fillColor=#ffe6cc;strokeColor=#d79b00;" edge="1" parent="1" source="12" target="22">
                    <mxGeometry relative="1" as="geometry">
                        <mxPoint x="908" y="362" as="sourcePoint"/>
                        <mxPoint x="1172" y="274" as="targetPoint"/>
                    </mxGeometry>
                </mxCell>
                <mxCell id="57" style="edgeStyle=none;html=1;strokeWidth=4;endArrow=block;endFill=1;endSize=14;fillColor=#ffe6cc;strokeColor=#d79b00;" edge="1" parent="1" source="12" target="23">
                    <mxGeometry relative="1" as="geometry">
                        <mxPoint x="910" y="375" as="sourcePoint"/>
                        <mxPoint x="1170" y="375" as="targetPoint"/>
                    </mxGeometry>
                </mxCell>
                <mxCell id="58" style="edgeStyle=none;html=1;strokeWidth=4;endArrow=block;endFill=1;endSize=14;fillColor=#ffe6cc;strokeColor=#d79b00;" edge="1" parent="1" source="12" target="24">
                    <mxGeometry relative="1" as="geometry">
                        <mxPoint x="903" y="397" as="sourcePoint"/>
                        <mxPoint x="1177" y="587" as="targetPoint"/>
                    </mxGeometry>
                </mxCell>
                <mxCell id="59" style="edgeStyle=none;html=1;strokeWidth=4;endArrow=block;endFill=1;endSize=14;fillColor=#ffe6cc;strokeColor=#d79b00;" edge="1" parent="1" source="13" target="21">
                    <mxGeometry relative="1" as="geometry">
                        <mxPoint x="898" y="403" as="sourcePoint"/>
                        <mxPoint x="1182" y="687" as="targetPoint"/>
                    </mxGeometry>
                </mxCell>
                <mxCell id="60" style="edgeStyle=none;html=1;strokeWidth=4;endArrow=block;endFill=1;endSize=14;fillColor=#ffe6cc;strokeColor=#d79b00;" edge="1" parent="1" source="13" target="22">
                    <mxGeometry relative="1" as="geometry">
                        <mxPoint x="898" y="581" as="sourcePoint"/>
                        <mxPoint x="1182" y="290" as="targetPoint"/>
                    </mxGeometry>
                </mxCell>
                <mxCell id="61" style="edgeStyle=none;html=1;strokeWidth=4;endArrow=block;endFill=1;endSize=14;fillColor=#ffe6cc;strokeColor=#d79b00;" edge="1" parent="1" source="13" target="23">
                    <mxGeometry relative="1" as="geometry">
                        <mxPoint x="903" y="587" as="sourcePoint"/>
                        <mxPoint x="1177" y="397" as="targetPoint"/>
                    </mxGeometry>
                </mxCell>
                <mxCell id="62" style="edgeStyle=none;html=1;strokeWidth=4;endArrow=block;endFill=1;endSize=14;fillColor=#ffe6cc;strokeColor=#d79b00;" edge="1" parent="1" source="13" target="24">
                    <mxGeometry relative="1" as="geometry">
                        <mxPoint x="910" y="610" as="sourcePoint"/>
                        <mxPoint x="1170" y="610" as="targetPoint"/>
                    </mxGeometry>
                </mxCell>
                <mxCell id="63" style="edgeStyle=none;html=1;strokeWidth=4;endArrow=block;endFill=1;endSize=14;fillColor=#ffe6cc;strokeColor=#d79b00;" edge="1" parent="1" source="14" target="21">
                    <mxGeometry relative="1" as="geometry">
                        <mxPoint x="908" y="622" as="sourcePoint"/>
                        <mxPoint x="1172" y="704" as="targetPoint"/>
                    </mxGeometry>
                </mxCell>
                <mxCell id="64" style="edgeStyle=none;html=1;strokeWidth=4;endArrow=block;endFill=1;endSize=14;fillColor=#ffe6cc;strokeColor=#d79b00;" edge="1" parent="1" source="14" target="22">
                    <mxGeometry relative="1" as="geometry">
                        <mxPoint x="894" y="683" as="sourcePoint"/>
                        <mxPoint x="1186" y="294" as="targetPoint"/>
                    </mxGeometry>
                </mxCell>
                <mxCell id="65" style="edgeStyle=none;html=1;strokeWidth=4;endArrow=block;endFill=1;endSize=14;fillColor=#ffe6cc;strokeColor=#d79b00;" edge="1" parent="1" source="14" target="23">
                    <mxGeometry relative="1" as="geometry">
                        <mxPoint x="898" y="687" as="sourcePoint"/>
                        <mxPoint x="1182" y="403" as="targetPoint"/>
                    </mxGeometry>
                </mxCell>
                <mxCell id="66" style="edgeStyle=none;html=1;strokeWidth=4;endArrow=block;endFill=1;endSize=14;fillColor=#ffe6cc;strokeColor=#d79b00;" edge="1" parent="1" source="14" target="24">
                    <mxGeometry relative="1" as="geometry">
                        <mxPoint x="908" y="704" as="sourcePoint"/>
                        <mxPoint x="1172" y="622" as="targetPoint"/>
                    </mxGeometry>
                </mxCell>
                <mxCell id="67" style="edgeStyle=none;html=1;strokeWidth=4;endArrow=block;endFill=1;endSize=14;fillColor=#d5e8d4;strokeColor=#82b366;" edge="1" parent="1" source="21" target="31">
                    <mxGeometry relative="1" as="geometry">
                        <mxPoint x="910" y="262" as="sourcePoint"/>
                        <mxPoint x="1170" y="262" as="targetPoint"/>
                    </mxGeometry>
                </mxCell>
                <mxCell id="68" style="edgeStyle=none;html=1;strokeWidth=4;endArrow=block;endFill=1;endSize=14;fillColor=#d5e8d4;strokeColor=#82b366;" edge="1" parent="1" source="22" target="31">
                    <mxGeometry relative="1" as="geometry">
                        <mxPoint x="1245" y="280" as="sourcePoint"/>
                        <mxPoint x="1495" y="413" as="targetPoint"/>
                    </mxGeometry>
                </mxCell>
                <mxCell id="69" style="edgeStyle=none;html=1;strokeWidth=4;endArrow=block;endFill=1;endSize=14;fillColor=#d5e8d4;strokeColor=#82b366;" edge="1" parent="1" source="23" target="31">
                    <mxGeometry relative="1" as="geometry">
                        <mxPoint x="1249" y="381" as="sourcePoint"/>
                        <mxPoint x="1491" y="425" as="targetPoint"/>
                    </mxGeometry>
                </mxCell>
                <mxCell id="70" style="edgeStyle=none;html=1;strokeWidth=4;endArrow=block;endFill=1;endSize=14;fillColor=#d5e8d4;strokeColor=#82b366;" edge="1" parent="1" source="24" target="32">
                    <mxGeometry relative="1" as="geometry">
                        <mxPoint x="1245" y="591" as="sourcePoint"/>
                        <mxPoint x="1495" y="451" as="targetPoint"/>
                    </mxGeometry>
                </mxCell>
                <mxCell id="71" style="edgeStyle=none;html=1;strokeWidth=4;endArrow=block;endFill=1;endSize=14;fillColor=#d5e8d4;strokeColor=#82b366;" edge="1" parent="1" source="24" target="31">
                    <mxGeometry relative="1" as="geometry">
                        <mxPoint x="1245" y="697" as="sourcePoint"/>
                        <mxPoint x="1495" y="563" as="targetPoint"/>
                    </mxGeometry>
                </mxCell>
                <mxCell id="72" style="edgeStyle=none;html=1;strokeWidth=4;endArrow=block;endFill=1;endSize=14;fillColor=#d5e8d4;strokeColor=#82b366;" edge="1" parent="1" source="23" target="32">
                    <mxGeometry relative="1" as="geometry">
                        <mxPoint x="1240" y="689" as="sourcePoint"/>
                        <mxPoint x="1500" y="458" as="targetPoint"/>
                    </mxGeometry>
                </mxCell>
                <mxCell id="73" style="edgeStyle=none;html=1;strokeWidth=4;endArrow=block;endFill=1;endSize=14;fillColor=#d5e8d4;strokeColor=#82b366;" edge="1" parent="1" source="22" target="32">
                    <mxGeometry relative="1" as="geometry">
                        <mxPoint x="1249" y="602" as="sourcePoint"/>
                        <mxPoint x="1491" y="553" as="targetPoint"/>
                    </mxGeometry>
                </mxCell>
                <mxCell id="74" style="edgeStyle=none;html=1;strokeWidth=4;endArrow=block;endFill=1;endSize=14;fillColor=#d5e8d4;strokeColor=#82b366;" edge="1" parent="1" source="21" target="32">
                    <mxGeometry relative="1" as="geometry">
                        <mxPoint x="1245" y="393" as="sourcePoint"/>
                        <mxPoint x="1495" y="526" as="targetPoint"/>
                    </mxGeometry>
                </mxCell>
                <mxCell id="77" value="Hidden Layers&lt;div&gt;(128 neurons each)&lt;/div&gt;" style="text;html=1;align=center;verticalAlign=middle;resizable=0;points=[];autosize=1;strokeColor=none;fillColor=none;fontSize=40;fontFamily=Comic Sans MS;fontStyle=0" vertex="1" parent="1">
                    <mxGeometry x="810" y="10" width="370" height="110" as="geometry"/>
                </mxCell>
                <mxCell id="78" value="&lt;div&gt;Input Layer&lt;/div&gt;&lt;div&gt;(4 neurons)&lt;/div&gt;" style="text;html=1;align=center;verticalAlign=middle;resizable=0;points=[];autosize=1;strokeColor=none;fillColor=none;fontSize=40;fontFamily=Comic Sans MS;fontStyle=0" vertex="1" parent="1">
                    <mxGeometry x="460" y="90" width="240" height="110" as="geometry"/>
                </mxCell>
                <mxCell id="79" value="&lt;div&gt;Output Layer&lt;/div&gt;&lt;div&gt;(2 neurons)&lt;/div&gt;" style="text;html=1;align=center;verticalAlign=middle;resizable=0;points=[];autosize=1;strokeColor=none;fillColor=none;fontSize=40;fontFamily=Comic Sans MS;fontStyle=0" vertex="1" parent="1">
                    <mxGeometry x="1265" y="90" width="270" height="110" as="geometry"/>
                </mxCell>
            </root>
        </mxGraphModel>
    </diagram>
</mxfile>